ModelForces
version=1
nRows=4
nColumns=155
inDegrees=no

This file contains the forces exerted on a model during a simulation.

A force is a generalized force, meaning that it can be either a force (N) or a torque (Nm).

Units are S.I. units (second, meters, Newtons, ...)
Angles are in degrees.

endheader
time	glut_med1_r	glut_med2_r	glut_med3_r	glut_min1_r	glut_min2_r	glut_min3_r	semimem_r	semiten_r	bifemlh_r	bifemsh_r	sar_r	add_long_r	add_brev_r	add_mag1_r	add_mag2_r	add_mag3_r	tfl_r	pect_r	grac_r	glut_max1_r	glut_max2_r	glut_max3_r	iliacus_r	psoas_r	quad_fem_r	gem_r	peri_r	rect_fem_r	vas_med_r	vas_int_r	vas_lat_r	med_gas_r	lat_gas_r	soleus_r	tib_post_r	flex_dig_r	flex_hal_r	tib_ant_r	per_brev_r	per_long_r	per_tert_r	ext_dig_r	ext_hal_r	glut_med1_l	glut_med2_l	glut_med3_l	glut_min1_l	glut_min2_l	glut_min3_l	semimem_l	semiten_l	bifemlh_l	bifemsh_l	sar_l	add_long_l	add_brev_l	add_mag1_l	add_mag2_l	add_mag3_l	tfl_l	pect_l	grac_l	glut_max1_l	glut_max2_l	glut_max3_l	iliacus_l	psoas_l	quad_fem_l	gem_l	peri_l	rect_fem_l	vas_med_l	vas_int_l	vas_lat_l	med_gas_l	lat_gas_l	soleus_l	tib_post_l	flex_dig_l	flex_hal_l	tib_ant_l	per_brev_l	per_long_l	per_tert_l	ext_dig_l	ext_hal_l	ercspn_r	ercspn_l	intobl_r	intobl_l	extobl_r	extobl_l	femur_lat_meniscii_r.femur_lat_r.force.X	femur_lat_meniscii_r.femur_lat_r.force.Y	femur_lat_meniscii_r.femur_lat_r.force.Z	femur_lat_meniscii_r.femur_lat_r.torque.X	femur_lat_meniscii_r.femur_lat_r.torque.Y	femur_lat_meniscii_r.femur_lat_r.torque.Z	femur_lat_meniscii_r.meniscus_lat_r.force.X	femur_lat_meniscii_r.meniscus_lat_r.force.Y	femur_lat_meniscii_r.meniscus_lat_r.force.Z	femur_lat_meniscii_r.meniscus_lat_r.torque.X	femur_lat_meniscii_r.meniscus_lat_r.torque.Y	femur_lat_meniscii_r.meniscus_lat_r.torque.Z	femur_med_meniscii_r.femur_med_r.force.X	femur_med_meniscii_r.femur_med_r.force.Y	femur_med_meniscii_r.femur_med_r.force.Z	femur_med_meniscii_r.femur_med_r.torque.X	femur_med_meniscii_r.femur_med_r.torque.Y	femur_med_meniscii_r.femur_med_r.torque.Z	femur_med_meniscii_r.meniscus_med_r.force.X	femur_med_meniscii_r.meniscus_med_r.force.Y	femur_med_meniscii_r.meniscus_med_r.force.Z	femur_med_meniscii_r.meniscus_med_r.torque.X	femur_med_meniscii_r.meniscus_med_r.torque.Y	femur_med_meniscii_r.meniscus_med_r.torque.Z	femur_med_tibia_r.tibia_upper_r.force.X	femur_med_tibia_r.tibia_upper_r.force.Y	femur_med_tibia_r.tibia_upper_r.force.Z	femur_med_tibia_r.tibia_upper_r.torque.X	femur_med_tibia_r.tibia_upper_r.torque.Y	femur_med_tibia_r.tibia_upper_r.torque.Z	femur_med_tibia_r.femur_med_r.force.X	femur_med_tibia_r.femur_med_r.force.Y	femur_med_tibia_r.femur_med_r.force.Z	femur_med_tibia_r.femur_med_r.torque.X	femur_med_tibia_r.femur_med_r.torque.Y	femur_med_tibia_r.femur_med_r.torque.Z	femur_lat_tibia_r.tibia_upper_r.force.X	femur_lat_tibia_r.tibia_upper_r.force.Y	femur_lat_tibia_r.tibia_upper_r.force.Z	femur_lat_tibia_r.tibia_upper_r.torque.X	femur_lat_tibia_r.tibia_upper_r.torque.Y	femur_lat_tibia_r.tibia_upper_r.torque.Z	femur_lat_tibia_r.femur_lat_r.force.X	femur_lat_tibia_r.femur_lat_r.force.Y	femur_lat_tibia_r.femur_lat_r.force.Z	femur_lat_tibia_r.femur_lat_r.torque.X	femur_lat_tibia_r.femur_lat_r.torque.Y	femur_lat_tibia_r.femur_lat_r.torque.Z	aACL_R	pACL_R	aPCL_R	pPCL_R	aMCL_R	mMCL_R	pMCL_R	aLCL_R	mLCL_R	pLCL_R	aPCL_L	pPCL_L	aMCL_L	aLCL_L
      0.16120886	     11.59362964	      8.46602368	      9.10717519	      3.90659243	      4.53727440	      4.92220580	      0.00000000	    168.00083519	    128.63037315	    283.03496017	    132.03603865	      8.42722749	      6.06257044	      1.17730515	      3.69267563	      6.23111390	      5.06090325	      3.29780642	    101.72909414	      5.46670653	      8.31652278	      6.25112852	     27.76909328	     18.78228893	      5.37358571	      3.69260671	      6.27488531	     51.41657385	     31.23767804	     33.28733496	     44.81252794	      0.00000000	      0.00000000	      0.00000000	      0.00000000	      0.00000000	      0.00000000	     35.38387791	      1.41838400	      1.54781274	     21.36099099	     38.79872657	     10.32976342	     11.59362964	      8.46602368	      9.10717519	      3.90659243	      4.53727440	      4.92220580	      0.00000000	      6.27936871	     12.39128058	     10.69560271	      2.22886823	      8.42722749	      6.06257044	      1.17730515	      3.69267563	      6.23111390	      5.48462671	      3.29780642	      2.30145838	      5.46670653	      8.31652278	      6.25112852	     27.76909328	     18.78228893	      5.37358571	      3.69260671	      6.27488531	     17.28763591	      0.00000000	      0.00000000	      0.00000000	     21.24332658	     10.04834236	     51.44128084	     51.32399460	      5.52302442	      4.94155519	     13.43932549	      7.19568851	     18.39583431	      2.90386555	      8.98453520	      2.82080320	     36.77267153	     36.77267153	     13.67846039	     13.67846039	     31.02339730	     31.02339730	     42.29304032	    100.69020440	     16.68200528	     -9.18925002	      1.05058294	     16.32063014	    -42.29304032	   -100.69020440	    -16.68200528	      2.89690217	     -1.44485805	      2.01182794	      8.47249774	     10.63781664	      8.27323243	     -3.11442075	     -0.20375907	      3.43896877	     -8.47249774	    -10.63781664	     -8.27323243	     -0.06153112	      0.02582907	      0.04226205	   -753.87069369	   -730.28221958	    230.96184752	    -16.79613302	     16.83743187	     -1.65473703	    753.87069369	    730.28221958	   -230.96184752	    106.90501903	    -13.26489422	    307.07058771	    -27.15647644	    -36.26807218	    -12.37496294	      1.20350736	     -0.97542924	      0.21868446	     27.15647644	     36.26807218	     12.37496294	     -5.92537719	      0.68888867	     10.98309623	    -10.85566957	      0.00000000	    534.07558313	    364.21809808	      0.00000000	      0.00000000	      0.00000000	      0.00000000	      0.00000000	      0.00000000	      0.00000000	      0.00000000	      0.00000001	      0.00000000
      0.16151237	     11.57863511	      8.45482307	      9.09498284	      3.90163485	      4.53184754	      4.91527949	      0.00000000	    168.19968349	    128.34428887	    282.59834394	    132.12223448	      8.41595054	      6.05494840	      1.61849168	      3.68770285	      6.22210434	      5.05966474	      3.29359143	    101.79996967	      5.45944398	      8.30544979	      6.24267789	     27.74843830	     18.75873151	      5.36661842	      3.68919845	      6.27208520	     51.64827438	     31.22984660	     33.27372134	     44.78247739	      0.00000000	      0.00000000	      0.00000000	      0.00000000	      0.00000000	      0.00000000	     35.44338644	      1.43163510	      1.56907168	     22.12282339	     38.99629364	     10.38084289	     11.57863511	      8.45482307	      9.09498284	      3.90163485	      4.53184754	      4.91527949	      0.00000000	      6.27054151	     12.37453640	     10.68171872	      2.22605293	      8.41595054	      6.05494840	      1.61849168	      3.68770285	      6.22210434	      5.47907956	      3.29359143	      2.29850038	      5.45944398	      8.30544979	      6.24267789	     27.74843830	     18.75873151	      5.36661842	      3.68919845	      6.27208520	     17.26168372	      0.00000000	      0.00000000	      0.00000000	     21.23723803	     10.04435920	     51.38143228	     51.29139678	      5.51646339	      4.93573548	     13.42041080	      7.18494645	     18.37602626	      2.90023702	      8.96948634	      2.81617577	     36.72590150	     36.72590150	     13.65967444	     13.65967444	     31.00635438	     31.00635438	     42.06558731	    100.69787091	     16.31258427	     -9.03847148	      1.04145238	     16.22029608	    -42.06558731	   -100.69787091	    -16.31258427	      2.88791849	     -1.42891711	      2.03208457	      8.62745851	     10.61019348	      8.23695943	     -3.09942643	     -0.20748072	      3.50040364	     -8.62745851	    -10.61019348	     -8.23695943	     -0.06292072	      0.02959263	      0.04100581	   -759.56689082	   -730.98454811	    230.69500574	    -16.79980014	     16.95870456	     -1.65718876	    759.56689082	    730.98454811	   -230.69500574	    106.81630053	    -13.38628427	    309.35755326	    -26.06732846	    -34.66840764	    -11.84212822	      1.14947593	     -0.93630280	      0.21180053	     26.06732846	     34.66840764	     11.84212822	     -5.66858899	      0.66131690	     10.54087209	    -10.89213367	      0.00000000	    537.92188708	    366.13562738	      0.00000000	      0.00000000	      0.00000000	      0.00000000	      0.00000000	      0.00000000	      0.00000000	      0.00000000	      0.00000001	      0.00000000
      0.16212407	     11.54850170	      8.43238800	      9.07056169	      3.89170412	      4.52097736	      4.90140437	      0.00000000	    168.57791773	    127.75654868	    281.75386048	    132.28539771	      8.39336294	      6.03968011	      2.25358202	      3.67774219	      6.20405767	      5.05697208	      3.28514835	    101.93097582	      5.44489738	      8.28327105	      6.22575177	     27.70706975	     18.71155040	      5.35266243	      3.68237262	      6.26631530	     52.11188573	     31.18597810	     33.22805882	     44.71044907	      0.00000000	      0.00000000	      0.00000000	      0.00000000	      0.00000000	      0.00000000	     35.55927857	      1.45964779	      1.61401746	      2.84485455	     39.37543152	     10.47437270	     11.54850170	      8.43238800	      9.07056169	      3.89170412	      4.52097736	      4.90140437	      0.00000000	      6.25286097	     12.34089936	     10.65390824	      2.22041343	      8.39336294	      6.03968011	      2.25358202	      3.67774219	      6.20405767	      5.46796712	      3.28514835	      2.29257521	      5.44489738	      8.28327105	      6.22575177	     27.70706975	     18.71155040	      5.35266243	      3.68237262	      6.26631530	     17.20968084	      0.00000000	      0.00000000	      0.00000000	     21.22459815	     10.03616845	     51.26081588	     51.22598322	      5.50317102	      4.92390436	     13.38246497	      7.16340495	     18.33622743	      2.89296961	      8.93966947	      2.80704311	     36.63221479	     36.63221479	     13.62204685	     13.62204685	     30.97222104	     30.97222104	     41.40814315	    101.01253384	     15.78331114	     -8.83876436	      1.01845164	     15.93381507	    -41.40814315	   -101.01253384	    -15.78331114	      2.89155722	     -1.39617702	      2.08634558	      8.68155164	     10.33231306	      8.13639048	     -3.06468284	     -0.20755645	      3.51840588	     -8.68155164	    -10.33231306	     -8.13639048	     -0.05994363	      0.03067934	      0.04019369	   -772.72149299	   -733.44873674	    231.62013503	    -16.86273013	     17.26950731	     -1.68077481	    772.72149299	    733.44873674	   -231.62013503	    107.25976171	    -13.67114899	    314.65417225	    -23.83401126	    -31.33459031	    -10.64373799	      1.03479382	     -0.85278066	      0.19446983	     23.83401126	     31.33459031	     10.64373799	     -5.09721627	      0.60381785	      9.63525071	    -10.82284188	      0.00000000	    545.58532206	    369.81495676	      0.00000000	      0.00000000	      0.00000000	      0.00000000	      0.00000000	      0.00000000	      0.00000000	      0.00000000	      0.00000001	      0.00000000
      0.16218524	     11.54549488	      8.43015463	      9.06813064	      3.89071549	      4.51989525	      4.90002302	      0.00000000	    168.61473118	    127.69820620	    281.67761311	    132.30135272	      8.39111441	      6.03816010	      2.30466704	      3.67675062	      6.20226113	      5.05668783	      3.28430783	    101.94363034	      5.44344932	      8.28106324	      6.22406685	     27.70295186	     18.70685397	      5.35127311	      3.68169319	      6.26572912	     52.16280539	     31.19620262	     33.23345089	     44.71077239	      0.00000000	      0.00000000	      0.00000000	      0.00000000	      0.00000000	      0.00000000	     35.57125825	      1.46250894	      1.61863492	      7.66184942	     39.42233581	     10.48818100	     11.54549488	      8.43015463	      9.06813064	      3.89071549	      4.51989525	      4.90002302	      0.00000000	      6.25110095	     12.33754376	     10.65113972	      2.21985201	      8.39111441	      6.03816010	      2.30466704	      3.67675062	      6.20226113	      5.46686080	      3.28430783	      2.29198535	      5.44344932	      8.28106324	      6.22406685	     27.70295186	     18.70685397	      5.35127311	      3.68169319	      6.26572912	     17.20450260	      0.00000000	      0.00000000	      0.00000000	     21.22330723	     10.03533749	     51.24875504	     51.21946276	      5.50183653	      4.92271355	     13.37868326	      7.16125872	     18.33225660	      2.89224620	      8.93672531	      2.80614399	     36.62288806	     36.62288806	     13.61830118	     13.61830118	     30.96882342	     30.96882342	     41.37518452	    101.26336768	     15.71744363	     -8.81836304	      1.01675070	     15.91613265	    -41.37518452	   -101.26336768	    -15.71744363	      2.89680418	     -1.39328220	      2.09789330	      8.71016790	     10.31448998	      8.12312357	     -3.05958298	     -0.20826053	      3.52976592	     -8.71016790	    -10.31448998	     -8.12312357	     -0.06001747	      0.03151769	      0.03970533	   -774.24659435	   -733.38067006	    232.19186019	    -16.87736227	     17.31776176	     -1.69892042	    774.24659435	    733.38067006	   -232.19186019	    107.49696949	    -13.70745699	    315.27429698	    -23.60290855	    -31.03934989	    -10.53242091	      1.02447641	     -0.84452060	      0.19408452	     23.60290855	     31.03934989	     10.53242091	     -5.04445126	      0.59801235	      9.54105193	    -10.81698625	      0.00000000	    546.34897555	    370.17753780	      0.00000000	      0.00000000	      0.00000000	      0.00000000	      0.00000000	      0.00000000	      0.00000000	      0.00000000	      0.00000001	      0.00000000
